<svg width="39" height="51" viewBox="0 0 39 51" fill="none" xmlns="http://www.w3.org/2000/svg">
<g filter="url(#filter0_d_1_1599)">
<path d="M14.9983 28.0876L19.6172 30.7543L10.2377 47L7.54563 40.996L14.9983 28.0876Z" fill="#AA75CB"/>
<path d="M14.9983 28.0876L10.3794 25.4209L0.999992 41.6666L7.54563 40.996L14.9983 28.0876Z" fill="#73488D"/>
<path d="M21.5876 28.0876L16.9688 30.7543L26.3482 47L29.0403 40.996L21.5876 28.0876Z" fill="#73488D"/>
<path d="M21.5876 28.0876L26.2065 25.4209L35.5859 41.6666L29.0403 40.996L21.5876 28.0876Z" fill="#AA75CB"/>
<circle cx="18.2856" cy="16.9018" r="16.0419" fill="#DC9E42" stroke="#774700" stroke-width="0.280189"/>
<circle cx="18.2856" cy="16.9018" r="12.4128" fill="#734C12"/>
<mask id="mask0_1_1599" style="mask-type:alpha" maskUnits="userSpaceOnUse" x="6" y="5" width="26" height="26">
<circle cx="18.9481" cy="18.2269" r="12.4417" fill="#C28B37"/>
</mask>
<g mask="url(#mask0_1_1599)">
<circle cx="18.2855" cy="16.9017" r="12.4417" fill="#A36D1D"/>
</g>
<path d="M18.3526 8.24634L21.0364 13.614L26.4042 14.285L22.7183 18.4181L23.7203 24.3495L18.3526 21.6656L12.9849 24.3495L13.9958 18.4181L10.301 14.285L15.6687 13.614L18.3526 8.24634Z" fill="url(#paint0_linear_1_1599)"/>
</g>
<defs>
<filter id="filter0_d_1_1599" x="0.780472" y="0.500199" width="38.0984" height="49.7927" filterUnits="userSpaceOnUse" color-interpolation-filters="sRGB">
<feFlood flood-opacity="0" result="BackgroundImageFix"/>
<feColorMatrix in="SourceAlpha" type="matrix" values="0 0 0 0 0 0 0 0 0 0 0 0 0 0 0 0 0 0 127 0" result="hardAlpha"/>
<feOffset dx="1.53669" dy="1.53669"/>
<feGaussianBlur stdDeviation="0.878111"/>
<feComposite in2="hardAlpha" operator="out"/>
<feColorMatrix type="matrix" values="0 0 0 0 0 0 0 0 0 0 0 0 0 0 0 0 0 0 0.3 0"/>
<feBlend mode="normal" in2="BackgroundImageFix" result="effect1_dropShadow_1_1599"/>
<feBlend mode="normal" in="SourceGraphic" in2="effect1_dropShadow_1_1599" result="shape"/>
</filter>
<linearGradient id="paint0_linear_1_1599" x1="18.3526" y1="8.24634" x2="18.3526" y2="24.3495" gradientUnits="userSpaceOnUse">
<stop stop-color="#FCFF80"/>
<stop offset="0.401042" stop-color="#FDE870"/>
<stop offset="1" stop-color="#FFC759"/>
</linearGradient>
</defs>
</svg>
